HIERARCHY
ROOT Hips
{
	OFFSET 0.00000 0.00000 0.00000
	CHANNELS 6 Xposition Yposition Zposition Zrotation Yrotation Xrotation 
	JOINT LHipJoint
	{
		OFFSET 0 0 0
		CHANNELS 3 Zrotation Yrotation Xrotation
		JOINT LeftUpLeg
		{
			OFFSET 1.62964 -1.40469 0.78906
			CHANNELS 3 Zrotation Yrotation Xrotation
			JOINT LeftLeg
			{
				OFFSET 2.29640 -6.30932 0.00000
				CHANNELS 3 Zrotation Yrotation Xrotation
				JOINT LeftFoot
				{
					OFFSET 2.29451 -6.30412 0.00000
					CHANNELS 3 Zrotation Yrotation Xrotation
					JOINT LeftToeBase
					{
						OFFSET 0.03611 -0.09921 1.56387
						CHANNELS 3 Zrotation Yrotation Xrotation
						End Site
						{
							OFFSET 0.00000 -0.00000 0.80291
						}
					}
				}
			}
		}
	}
	JOINT RHipJoint
	{
		OFFSET 0 0 0
		CHANNELS 3 Zrotation Yrotation Xrotation
		JOINT RightUpLeg
		{
			OFFSET -1.73712 -1.40469 0.78906
			CHANNELS 3 Zrotation Yrotation Xrotation
			JOINT RightLeg
			{
				OFFSET -2.28137 -6.26801 0.00000
				CHANNELS 3 Zrotation Yrotation Xrotation
				JOINT RightFoot
				{
					OFFSET -2.28681 -6.28298 0.00000
					CHANNELS 3 Zrotation Yrotation Xrotation
					JOINT RightToeBase
					{
						OFFSET -0.15927 -0.43759 1.61103
						CHANNELS 3 Zrotation Yrotation Xrotation
						End Site
						{
							OFFSET -0.00000 -0.00000 0.84630
						}
					}
				}
			}
		}
	}
	JOINT LowerBack
	{
		OFFSET 0 0 0
		CHANNELS 3 Zrotation Yrotation Xrotation
		JOINT Spine
		{
			OFFSET -0.04227 2.04338 -0.00225
			CHANNELS 3 Zrotation Yrotation Xrotation
			JOINT Spine1
			{
				OFFSET -0.02148 2.04482 -0.04273
				CHANNELS 3 Zrotation Yrotation Xrotation
				JOINT Neck
				{
					OFFSET 0 0 0
					CHANNELS 3 Zrotation Yrotation Xrotation
					JOINT Neck1
					{
						OFFSET 0.09180 1.44629 0.19359
						CHANNELS 3 Zrotation Yrotation Xrotation
						JOINT Head
						{
							OFFSET 0.00887 1.40645 0.14750
							CHANNELS 3 Zrotation Yrotation Xrotation
							End Site
							{
								OFFSET -0.00669 1.50671 0.03707
							}
						}
					}
				}
				JOINT LeftShoulder
				{
					OFFSET 0 0 0
					CHANNELS 3 Zrotation Yrotation Xrotation
					JOINT LeftArm
					{
						OFFSET 2.17674 1.86763 -0.06520
						CHANNELS 3 Zrotation Yrotation Xrotation
						JOINT LeftForeArm
						{
							OFFSET 4.65776 -0.00000 0.00000
							CHANNELS 3 Zrotation Yrotation Xrotation
							JOINT LeftHand
							{
								OFFSET 3.55539 -0.00000 0.00000
								CHANNELS 3 Zrotation Yrotation Xrotation
								JOINT LeftFingerBase
								{
									OFFSET 0 0 0
									CHANNELS 3 Zrotation Yrotation Xrotation
									JOINT LeftHandIndex1
									{
										OFFSET 0.70726 -0.00000 0.00000
										CHANNELS 3 Zrotation Yrotation Xrotation
										End Site
										{
											OFFSET 0.57022 -0.00000 0.00000
										}
									}
								}
								JOINT LThumb
								{
									OFFSET 0 0 0
									CHANNELS 3 Zrotation Yrotation Xrotation
									End Site
									{
										OFFSET 0.57892 -0.00000 0.57892
									}
								}
							}
						}
					}
				}
				JOINT RightShoulder
				{
					OFFSET 0 0 0
					CHANNELS 3 Zrotation Yrotation Xrotation
					JOINT RightArm
					{
						OFFSET -2.80694 1.55459 -0.32496
						CHANNELS 3 Zrotation Yrotation Xrotation
						JOINT RightForeArm
						{
							OFFSET -4.71925 -0.00000 -0.00000
							CHANNELS 3 Zrotation Yrotation Xrotation
							JOINT RightHand
							{
								OFFSET -3.56990 -0.00000 0.00000
								CHANNELS 3 Zrotation Yrotation Xrotation
								JOINT RightFingerBase
								{
									OFFSET 0 0 0
									CHANNELS 3 Zrotation Yrotation Xrotation
									JOINT RightHandIndex1
									{
										OFFSET -0.50776 -0.00000 0.00000
										CHANNELS 3 Zrotation Yrotation Xrotation
										End Site
										{
											OFFSET -0.40937 -0.00000 0.00000
										}
									}
								}
								JOINT RThumb
								{
									OFFSET 0 0 0
									CHANNELS 3 Zrotation Yrotation Xrotation
									End Site
									{
										OFFSET -0.41562 -0.00000 0.41562
									}
								}
							}
						}
					}
				}
			}
		}
	}
}
MOTION
Frames: 9
Frame Time: .0083333
9.1451 16.3176 17.7951 0 0 0 0 0 0 -21 0 0 0 0 0 0 0 0 0 0 0 0 0 0 21 0 0 0 0 0 0 0 0 0 0 0 0 0 0 0 0 0 0 0 0 0 0 -16 0 0 21 0 0 11 0 0 0 -8 0 0 0 0 0 0 0 0 0 0 0 0 0 0 0 0 0 0 0 0 8 0 0 0 0 0 0 0 0 0 0 0 0 0 0 0 0 0
9.1451 16.3176 17.7951 179.9780 -2.6861 -153.6740 0.0000 0.0000 0.0000 -17.6357 -16.0504 -19.6912 0.1644 2.6121 7.2006 0.2312 1.1177 -9.5606 4.6369 -12.9628 -39.2295 0.0000 0.0000 0.0000 15.9320 17.1133 -20.0781 -0.1751 -2.6953 7.4314 -1.0629 0.6322 -19.2913 -3.2989 11.1638 -32.8343 -5.8278 -1.8862 -29.9976 -0.1222 -1.5094 -2.9525 2.3601 -1.3849 12.5349 -3.0251 -3.1751 1.9768 7.2809 -4.2902 -11.6767 3.1900 -2.5570 -3.9649 -0.0000 0.0000 0.0000 -85.6076 -3.1047 16.7708 7.8368 -13.2879 -0.9142 -0.0000 -0.0000 5.1863 23.3063 -11.9302 -5.0890 -7.1250 0.0000 -0.0000 -2.7067 17.0331 1.7972 -0.0000 0.0000 0.0000 92.0270 -1.7899 7.3388 -13.0726 21.3934 -2.4797 0.0000 0.0000 4.8381 -17.6594 -51.3185 13.9565 7.1250 -0.0000 -0.0000 57.3007 -77.3652 -45.8654
9.1435 16.3190 17.7961 179.9750 -2.7102 -153.6390 0.0000 0.0000 0.0000 -17.6659 -15.9848 -19.7245 0.1612 2.5868 7.1303 0.2188 1.2292 -9.3719 5.0049 -13.3893 -40.8439 0.0000 0.0000 0.0000 15.8598 17.3243 -20.1224 -0.1821 -2.7487 7.5799 -1.0725 0.6152 -19.3846 -3.0705 10.8083 -31.6361 -5.8243 -1.8597 -30.0351 -0.1693 -1.4628 -2.9219 2.3242 -1.3627 12.5807 -2.8507 -3.2552 1.8911 7.3379 -4.3972 -11.7792 3.1823 -2.6277 -3.9802 0.0000 0.0000 0.0000 -85.8510 -3.6610 13.8407 7.5683 -12.8507 -0.8535 -0.0000 -0.0000 8.0846 18.3975 -11.7668 -3.8803 -7.1250 0.0000 -0.0000 -6.1287 17.6412 4.0063 0.0000 0.0000 0.0000 92.1563 -1.7209 7.3089 -13.1145 21.4548 -2.4950 0.0000 0.0000 4.9054 -17.6286 -52.0987 14.0762 7.1250 -0.0000 -0.0000 60.6467 -77.6482 -49.1301
9.1439 16.3198 17.7984 179.9470 -2.6767 -153.6530 0.0000 0.0000 0.0000 -17.7058 -15.9927 -19.7357 0.1641 2.6098 7.1941 0.2191 1.2902 -9.4107 5.0798 -13.4731 -41.1664 0.0000 0.0000 0.0000 15.8230 17.3038 -20.1353 -0.1826 -2.7521 7.5894 -1.0748 0.6767 -19.3868 -3.1039 10.8613 -31.8136 -5.8665 -1.8021 -30.0202 -0.2251 -1.3536 -2.8602 2.3292 -1.3115 12.6340 -2.7087 -3.3412 1.7544 7.3604 -4.5184 -11.8967 3.1676 -2.7027 -3.9901 0.0000 0.0000 0.0000 -86.0274 -4.1660 11.2817 7.3853 -12.5517 -0.8133 -0.0000 -0.0000 10.6954 13.2140 -11.4425 -2.6670 -7.1250 0.0000 -0.0000 -9.7528 18.3305 6.2824 0.0000 0.0000 0.0000 92.2564 -1.5778 7.0562 -13.1052 21.4411 -2.4916 0.0000 0.0000 4.8920 -17.7020 -52.0546 14.1281 7.1250 -0.0000 -0.0000 60.4203 -77.6623 -48.9408
9.1443 16.3185 17.8018 179.9790 -2.6314 -153.5720 0.0000 0.0000 0.0000 -17.6551 -15.9808 -19.8881 0.1688 2.6465 7.2960 0.2271 1.2379 -9.5412 5.0474 -13.4369 -41.0269 0.0000 0.0000 0.0000 15.8338 17.2576 -20.3211 -0.1861 -2.7782 7.6620 -1.0781 0.7898 -19.3828 -3.1681 10.9624 -32.1531 -5.8705 -1.7091 -30.1264 -0.2716 -1.2085 -2.7971 2.3341 -1.2455 12.7393 -2.5992 -3.4219 1.6060 7.4101 -4.6316 -11.9974 3.1669 -2.7730 -3.9914 -0.0000 0.0000 0.0000 -86.4124 -5.0241 5.8667 7.0134 -11.9413 -0.7344 -0.0000 -0.0000 16.4736 2.9601 -10.9878 -0.5647 -7.1250 0.0000 -0.0000 -16.8706 19.2026 10.8612 -0.0000 0.0000 0.0000 92.3608 -1.3720 6.6663 -13.0656 21.3833 -2.4772 0.0000 0.0000 5.0270 -17.6675 -51.9640 14.0832 7.1250 -0.0000 -0.0000 60.0423 -77.6161 -48.5550
9.1410 16.3163 17.8017 180.0730 -2.4770 -153.4970 0.0000 0.0000 0.0000 -17.5719 -16.0052 -19.9427 0.1674 2.6355 7.2656 0.2320 1.3686 -9.7042 5.0834 -13.4770 -41.1815 0.0000 0.0000 0.0000 15.9040 17.1302 -20.5738 -0.1917 -2.8196 7.7769 -1.0703 1.0499 -19.2353 -3.2343 11.0650 -32.4994 -5.8010 -1.5572 -30.2962 -0.3313 -1.0039 -2.7139 2.3071 -1.1498 12.8904 -2.4333 -3.4961 1.4504 7.4503 -4.7363 -12.1029 3.1523 -2.8421 -3.9950 0.0000 -0.0000 0.0000 -86.3500 -5.4123 5.0231 6.8245 -11.6300 -0.6958 -0.0000 -0.0000 17.7979 3.1801 -11.1399 -0.6150 -7.1250 0.0000 -0.0000 -16.7065 19.0514 10.8049 0.0000 -0.0000 0.0000 92.4852 -1.1475 6.2963 -13.0339 21.3369 -2.4656 0.0000 0.0000 5.1645 -17.6627 -52.0376 14.0928 7.1250 -0.0000 -0.0000 60.3646 -77.6404 -48.8687
9.1420 16.3154 17.8078 180.0820 -2.4398 -153.3690 0.0000 0.0000 0.0000 -17.5194 -16.0180 -20.1789 0.1713 2.6666 7.3518 0.2301 1.3472 -9.6557 5.0966 -13.4917 -41.2382 0.0000 0.0000 0.0000 15.8934 17.0140 -20.8717 -0.1968 -2.8565 7.8794 -1.0499 1.1690 -19.0133 -3.2818 11.1378 -32.7462 -6.0495 -1.4268 -30.4567 -0.3887 -0.7056 -2.5686 2.4917 -1.0259 13.1005 -1.9109 -3.6840 1.0400 7.3174 -5.0080 -12.2201 3.0075 -3.0042 -3.9544 0.0000 -0.0000 0.0000 -86.3830 -4.4716 11.5987 6.1407 -10.4966 -0.5646 -0.0000 -0.0000 24.8582 22.4657 -12.5026 -5.1154 -7.1250 0.0000 -0.0000 -3.3175 16.5013 2.2424 0.0000 -0.0000 0.0000 92.7032 -0.7964 5.5477 -13.0589 21.3735 -2.4747 0.0000 0.0000 5.2757 -17.8484 -52.2115 14.2769 7.1250 -0.0000 -0.0000 61.0438 -77.7758 -49.6166
9.1441 16.3148 17.8103 180.0930 -2.4053 -153.3090 0.0000 0.0000 0.0000 -17.4760 -15.9925 -20.2926 0.1730 2.6792 7.3869 0.2237 1.4222 -9.5715 5.1460 -13.5464 -41.4497 0.0000 0.0000 0.0000 15.8957 16.9799 -20.9824 -0.1973 -2.8606 7.8909 -1.0403 1.2250 -18.9086 -3.3290 11.2095 -32.9899 -6.1178 -1.4199 -30.5102 -0.3679 -0.6728 -2.5606 2.5626 -1.0164 13.1302 -1.8573 -3.7056 0.9702 7.3332 -5.0384 -12.2189 3.0013 -3.0234 -3.9395 0.0000 -0.0000 0.0000 -86.3629 -4.4920 12.1140 6.1752 -10.5540 -0.5709 -0.0000 -0.0000 24.2242 22.5991 -12.3546 -5.0893 -7.1250 0.0000 -0.0000 -3.2183 16.6467 2.1649 0.0000 -0.0000 0.0000 92.7136 -0.7872 5.3289 -13.0551 21.3679 -2.4733 0.0000 0.0000 5.4474 -17.3835 -51.6694 13.7978 7.1250 -0.0000 -0.0000 58.9253 -77.3925 -47.3331
9.1477 16.3192 17.8041 179.9690 -2.6529 -153.5680 0.0000 0.0000 0.0000 -17.6419 -15.9154 -19.9619 0.1697 2.6536 7.3159 0.2206 1.1940 -9.3906 5.0759 -13.4687 -41.1495 0.0000 0.0000 0.0000 15.9158 16.8799 -20.4043 -0.1802 -2.7342 7.5397 -1.0345 0.8972 -18.9481 -3.3309 11.2124 -32.9997 -6.2845 -1.5664 -30.2823 -0.3383 -0.7990 -2.4849 2.6413 -1.0734 13.1287 -1.8879 -3.7125 0.9727 7.3670 -5.0468 -12.2267 3.0192 -3.0284 -3.9410 -0.0000 0.0000 0.0000 -86.3745 -4.5414 12.0145 6.1521 -10.5156 -0.5667 -0.0000 -0.0000 24.1877 22.6079 -12.4698 -5.1380 -7.1250 0.0000 -0.0000 -3.2174 16.5222 2.1730 -0.0000 0.0000 0.0000 92.6805 -0.7972 5.3113 -13.0322 21.3344 -2.4650 0.0000 0.0000 5.5607 -17.0193 -51.1889 13.4154 7.1250 -0.0000 -0.0000 57.1431 -77.0548 -45.4208
